<mxfile host="app.diagrams.net" modified="2022-10-05T19:49:43.862Z" agent="5.0 (Windows NT 10.0; Win64; x64) AppleWebKit/537.36 (KHTML, like Gecko) Chrome/106.0.0.0 Safari/537.36" etag="pKWb3aGfFLBgN7l00q7j" version="20.4.0" type="github" pages="2">
  <diagram id="ZikHR3m95qK9YOb5Ooth" name="Beginner Bug Bounty Guide">
    <mxGraphModel dx="1822" dy="786" grid="0" gridSize="10" guides="1" tooltips="1" connect="1" arrows="1" fold="1" page="0" pageScale="1" pageWidth="850" pageHeight="1100" math="0" shadow="0">
      <root>
        <mxCell id="0" />
        <mxCell id="1" parent="0" />
        <mxCell id="Xof230OjBOCpJgYOQFSc-5" value="" style="edgeStyle=orthogonalEdgeStyle;rounded=0;orthogonalLoop=1;jettySize=auto;html=1;" parent="1" source="Xof230OjBOCpJgYOQFSc-1" target="Xof230OjBOCpJgYOQFSc-4" edge="1">
          <mxGeometry relative="1" as="geometry" />
        </mxCell>
        <mxCell id="Xof230OjBOCpJgYOQFSc-1" value="Beginner Bug Bounty Guide" style="rounded=0;whiteSpace=wrap;html=1;" parent="1" vertex="1">
          <mxGeometry x="-263" y="474" width="120" height="60" as="geometry" />
        </mxCell>
        <mxCell id="Xof230OjBOCpJgYOQFSc-11" value="" style="edgeStyle=orthogonalEdgeStyle;rounded=0;orthogonalLoop=1;jettySize=auto;html=1;" parent="1" source="Xof230OjBOCpJgYOQFSc-4" edge="1">
          <mxGeometry relative="1" as="geometry">
            <Array as="points">
              <mxPoint x="47" y="504" />
              <mxPoint x="47" y="444" />
            </Array>
            <mxPoint x="94.5" y="444" as="targetPoint" />
          </mxGeometry>
        </mxCell>
        <mxCell id="Xof230OjBOCpJgYOQFSc-13" value="" style="edgeStyle=orthogonalEdgeStyle;rounded=0;orthogonalLoop=1;jettySize=auto;html=1;" parent="1" source="Xof230OjBOCpJgYOQFSc-4" target="Xof230OjBOCpJgYOQFSc-12" edge="1">
          <mxGeometry relative="1" as="geometry">
            <Array as="points">
              <mxPoint x="47" y="504" />
              <mxPoint x="47" y="604" />
            </Array>
          </mxGeometry>
        </mxCell>
        <mxCell id="Xof230OjBOCpJgYOQFSc-4" value="Have programming background" style="rhombus;whiteSpace=wrap;html=1;rounded=0;" parent="1" vertex="1">
          <mxGeometry x="-93" y="454" width="100" height="100" as="geometry" />
        </mxCell>
        <mxCell id="Xof230OjBOCpJgYOQFSc-19" style="edgeStyle=orthogonalEdgeStyle;rounded=0;orthogonalLoop=1;jettySize=auto;html=1;entryX=0.5;entryY=1;entryDx=0;entryDy=0;" parent="1" source="Xof230OjBOCpJgYOQFSc-12" edge="1">
          <mxGeometry relative="1" as="geometry">
            <mxPoint x="182" y="474" as="targetPoint" />
          </mxGeometry>
        </mxCell>
        <mxCell id="Xof230OjBOCpJgYOQFSc-12" value="&lt;span&gt;For beginners,&lt;/span&gt;&lt;br&gt;&lt;span&gt;1) Javascript (Required)&lt;/span&gt;&lt;br&gt;&lt;span&gt;2) Python (preferred, but any other language can also do) (Required)&lt;/span&gt;&lt;br&gt;&lt;span&gt;3) Bash (optional)&lt;/span&gt;&lt;br&gt;&lt;span&gt;4) Windows Powershell (optional)&lt;/span&gt;" style="whiteSpace=wrap;html=1;rounded=0;align=left;spacingLeft=5;" parent="1" vertex="1">
          <mxGeometry x="77" y="554" width="210" height="100" as="geometry" />
        </mxCell>
        <mxCell id="Xof230OjBOCpJgYOQFSc-14" value="Yes" style="text;html=1;strokeColor=none;fillColor=none;align=center;verticalAlign=middle;whiteSpace=wrap;rounded=0;" parent="1" vertex="1">
          <mxGeometry x="17" y="414" width="60" height="30" as="geometry" />
        </mxCell>
        <mxCell id="Xof230OjBOCpJgYOQFSc-15" value="No" style="text;html=1;strokeColor=none;fillColor=none;align=center;verticalAlign=middle;whiteSpace=wrap;rounded=0;" parent="1" vertex="1">
          <mxGeometry x="7" y="604" width="60" height="30" as="geometry" />
        </mxCell>
        <mxCell id="7APMinoS_-_rVs3ugznU-9" style="edgeStyle=orthogonalEdgeStyle;rounded=0;orthogonalLoop=1;jettySize=auto;html=1;" parent="1" source="Xof230OjBOCpJgYOQFSc-20" target="Xof230OjBOCpJgYOQFSc-23" edge="1">
          <mxGeometry relative="1" as="geometry" />
        </mxCell>
        <mxCell id="7APMinoS_-_rVs3ugznU-10" style="edgeStyle=orthogonalEdgeStyle;rounded=0;orthogonalLoop=1;jettySize=auto;html=1;entryX=0;entryY=0.5;entryDx=0;entryDy=0;" parent="1" source="Xof230OjBOCpJgYOQFSc-20" target="Xof230OjBOCpJgYOQFSc-40" edge="1">
          <mxGeometry relative="1" as="geometry" />
        </mxCell>
        <mxCell id="Xof230OjBOCpJgYOQFSc-20" value="6) Read Bug Bounty Submissions and Writeups" style="whiteSpace=wrap;html=1;fillColor=#fff2cc;strokeColor=#d6b656;rounded=0;align=left;spacingLeft=5;" parent="1" vertex="1">
          <mxGeometry x="1121" y="416" width="128" height="60" as="geometry" />
        </mxCell>
        <mxCell id="Xof230OjBOCpJgYOQFSc-23" value="(Click to see links.)" style="swimlane;fontStyle=0;childLayout=stackLayout;horizontal=1;startSize=30;horizontalStack=0;resizeParent=1;resizeParentMax=0;resizeLast=0;collapsible=1;marginBottom=0;" parent="1" vertex="1">
          <mxGeometry x="1118" y="39" width="286" height="210" as="geometry" />
        </mxCell>
        <UserObject label="1) Nahamsec Begineer Bug Bounty Hunters  " link="https://github.com/nahamsec/Resources-for-Beginner-Bug-Bounty-Hunters/tree/master/assets" linkTarget="_blank" id="Xof230OjBOCpJgYOQFSc-24">
          <mxCell style="text;strokeColor=none;fillColor=none;align=left;verticalAlign=middle;spacingLeft=4;spacingRight=4;overflow=hidden;points=[[0,0.5],[1,0.5]];portConstraint=eastwest;rotatable=0;" parent="Xof230OjBOCpJgYOQFSc-23" vertex="1">
            <mxGeometry y="30" width="286" height="30" as="geometry" />
          </mxCell>
        </UserObject>
        <UserObject label="2) Beginner Essential Bug Bounty Submissions" link="https://github.com/twseptian/Bug-Bounty-Testing-Essential-Guideline-Startup-Bug-Hunters" linkTarget="_blank" id="7APMinoS_-_rVs3ugznU-8">
          <mxCell style="text;strokeColor=none;fillColor=none;align=left;verticalAlign=middle;spacingLeft=4;spacingRight=4;overflow=hidden;points=[[0,0.5],[1,0.5]];portConstraint=eastwest;rotatable=0;" parent="Xof230OjBOCpJgYOQFSc-23" vertex="1">
            <mxGeometry y="60" width="286" height="30" as="geometry" />
          </mxCell>
        </UserObject>
        <UserObject label="3) Topicwise Bug Bounty Writeups 1" link="https://github.com/devanshbatham/Awesome-Bugbounty-Writeups" linkTarget="_blank" id="Xof230OjBOCpJgYOQFSc-25">
          <mxCell style="text;strokeColor=none;fillColor=none;align=left;verticalAlign=middle;spacingLeft=4;spacingRight=4;overflow=hidden;points=[[0,0.5],[1,0.5]];portConstraint=eastwest;rotatable=0;" parent="Xof230OjBOCpJgYOQFSc-23" vertex="1">
            <mxGeometry y="90" width="286" height="30" as="geometry" />
          </mxCell>
        </UserObject>
        <UserObject label="4) Topicwise Bug Bounty Writeups 2" link="https://www.bugbountyhunting.com/" id="Xof230OjBOCpJgYOQFSc-26">
          <mxCell style="text;strokeColor=none;fillColor=none;align=left;verticalAlign=middle;spacingLeft=4;spacingRight=4;overflow=hidden;points=[[0,0.5],[1,0.5]];portConstraint=eastwest;rotatable=0;" parent="Xof230OjBOCpJgYOQFSc-23" vertex="1">
            <mxGeometry y="120" width="286" height="30" as="geometry" />
          </mxCell>
        </UserObject>
        <object label="5) (hover) Rest of the resources" one="https://infosecwriteups.com/" tow="https://www.youtube.com/c/BugBountyReportsExplained/videos" three="https://pequalsnp-team.github.io/" id="Xof230OjBOCpJgYOQFSc-39">
          <mxCell style="text;strokeColor=none;fillColor=none;align=left;verticalAlign=middle;spacingLeft=4;spacingRight=4;overflow=hidden;points=[[0,0.5],[1,0.5]];portConstraint=eastwest;rotatable=0;" parent="Xof230OjBOCpJgYOQFSc-23" vertex="1">
            <mxGeometry y="150" width="286" height="30" as="geometry" />
          </mxCell>
        </object>
        <UserObject label="6) HackerOne Hactivity" link="https://hackerone.com/hacktivity?querystring=&amp;filter=type:public&amp;order_direction=DESC&amp;order_field=popular&amp;followed_only=false&amp;collaboration_only=false" linkTarget="_blank" id="U4LFZSz3BH9hp5_ZrS64-6">
          <mxCell style="text;strokeColor=none;fillColor=none;align=left;verticalAlign=middle;spacingLeft=4;spacingRight=4;overflow=hidden;points=[[0,0.5],[1,0.5]];portConstraint=eastwest;rotatable=0;" parent="Xof230OjBOCpJgYOQFSc-23" vertex="1">
            <mxGeometry y="180" width="286" height="30" as="geometry" />
          </mxCell>
        </UserObject>
        <mxCell id="Xof230OjBOCpJgYOQFSc-47" style="edgeStyle=orthogonalEdgeStyle;rounded=0;orthogonalLoop=1;jettySize=auto;html=1;" parent="1" source="Xof230OjBOCpJgYOQFSc-30" target="Xof230OjBOCpJgYOQFSc-34" edge="1">
          <mxGeometry relative="1" as="geometry" />
        </mxCell>
        <mxCell id="7APMinoS_-_rVs3ugznU-15" style="edgeStyle=orthogonalEdgeStyle;rounded=0;orthogonalLoop=1;jettySize=auto;html=1;entryX=1;entryY=0.5;entryDx=0;entryDy=0;fontSize=12;" parent="1" source="Xof230OjBOCpJgYOQFSc-30" target="Xof230OjBOCpJgYOQFSc-45" edge="1">
          <mxGeometry relative="1" as="geometry" />
        </mxCell>
        <mxCell id="Xof230OjBOCpJgYOQFSc-30" value="&lt;b&gt;Be up to date&lt;/b&gt; with latest vulnerabilities, latest attacks and get bug bounty tips" style="whiteSpace=wrap;html=1;align=left;fillColor=#fff2cc;strokeColor=#d6b656;rounded=0;spacingLeft=5;" parent="1" vertex="1">
          <mxGeometry x="1418" y="591" width="133" height="80" as="geometry" />
        </mxCell>
        <mxCell id="Xof230OjBOCpJgYOQFSc-34" value="Links (Click to see links)" style="swimlane;fontStyle=0;childLayout=stackLayout;horizontal=1;startSize=30;horizontalStack=0;resizeParent=1;resizeParentMax=0;resizeLast=0;collapsible=1;marginBottom=0;" parent="1" vertex="1">
          <mxGeometry x="1675" y="593" width="235" height="240" as="geometry" />
        </mxCell>
        <UserObject label="List of People to follow (hover)" Twitter1="https://github.com/swisskyrepo/PayloadsAllTheThings/blob/master/TWITTER.md" Twitter2="https://github.com/securibee/Twitter-Seclists" id="Xof230OjBOCpJgYOQFSc-35">
          <mxCell style="text;strokeColor=none;fillColor=none;align=left;verticalAlign=middle;spacingLeft=4;spacingRight=4;overflow=hidden;points=[[0,0.5],[1,0.5]];portConstraint=eastwest;rotatable=0;" parent="Xof230OjBOCpJgYOQFSc-34" vertex="1">
            <mxGeometry y="30" width="235" height="30" as="geometry" />
          </mxCell>
        </UserObject>
        <object label="List of Youtube Channels to follow (hover)" Youtube1="https://github.com/swisskyrepo/PayloadsAllTheThings/blob/master/YOUTUBE.md" id="hJ6SZaEzVKJAQh04Z_N3-8">
          <mxCell style="text;strokeColor=none;fillColor=none;align=left;verticalAlign=middle;spacingLeft=4;spacingRight=4;overflow=hidden;points=[[0,0.5],[1,0.5]];portConstraint=eastwest;rotatable=0;" parent="Xof230OjBOCpJgYOQFSc-34" vertex="1">
            <mxGeometry y="60" width="235" height="30" as="geometry" />
          </mxCell>
        </object>
        <object label="List of Books to read (hover)" Books1="https://github.com/swisskyrepo/PayloadsAllTheThings/blob/master/BOOKS.md" id="fcB19h9n-RpTiUDAHUsm-1">
          <mxCell style="text;strokeColor=none;fillColor=none;align=left;verticalAlign=middle;spacingLeft=4;spacingRight=4;overflow=hidden;points=[[0,0.5],[1,0.5]];portConstraint=eastwest;rotatable=0;" parent="Xof230OjBOCpJgYOQFSc-34" vertex="1">
            <mxGeometry y="90" width="235" height="30" as="geometry" />
          </mxCell>
        </object>
        <object label="Security Conferences - Youtube (hover)" One="https://www.youtube.com/user/hitbsecconf/videos" two="https://www.youtube.com/c/BlackHatOfficialYT/videos" id="Xof230OjBOCpJgYOQFSc-36">
          <mxCell style="text;strokeColor=none;fillColor=none;align=left;verticalAlign=middle;spacingLeft=4;spacingRight=4;overflow=hidden;points=[[0,0.5],[1,0.5]];portConstraint=eastwest;rotatable=0;" parent="Xof230OjBOCpJgYOQFSc-34" vertex="1">
            <mxGeometry y="120" width="235" height="30" as="geometry" />
          </mxCell>
        </object>
        <UserObject label="PTES (optional)" link="http://www.pentest-standard.org/index.php/Main_Page" linkTarget="_blank" id="Xof230OjBOCpJgYOQFSc-49">
          <mxCell style="text;strokeColor=none;fillColor=none;align=left;verticalAlign=middle;spacingLeft=4;spacingRight=4;overflow=hidden;points=[[0,0.5],[1,0.5]];portConstraint=eastwest;rotatable=0;" parent="Xof230OjBOCpJgYOQFSc-34" vertex="1">
            <mxGeometry y="150" width="235" height="30" as="geometry" />
          </mxCell>
        </UserObject>
        <UserObject label="NIST Guide (optional)" link="https://csrc.nist.gov/publications/detail/sp/800-115/final" linkTarget="_blank" id="Xof230OjBOCpJgYOQFSc-50">
          <mxCell style="text;strokeColor=none;fillColor=none;align=left;verticalAlign=middle;spacingLeft=4;spacingRight=4;overflow=hidden;points=[[0,0.5],[1,0.5]];portConstraint=eastwest;rotatable=0;" parent="Xof230OjBOCpJgYOQFSc-34" vertex="1">
            <mxGeometry y="180" width="235" height="30" as="geometry" />
          </mxCell>
        </UserObject>
        <UserObject label="MITRE ATT&amp;CK" link="https://attack.mitre.org/" linkTarget="_blank" id="_02s8tGerYHSH4SqCufu-1">
          <mxCell style="text;strokeColor=none;fillColor=none;align=left;verticalAlign=middle;spacingLeft=4;spacingRight=4;overflow=hidden;points=[[0,0.5],[1,0.5]];portConstraint=eastwest;rotatable=0;" parent="Xof230OjBOCpJgYOQFSc-34" vertex="1">
            <mxGeometry y="210" width="235" height="30" as="geometry" />
          </mxCell>
        </UserObject>
        <mxCell id="Xof230OjBOCpJgYOQFSc-43" value="" style="edgeStyle=orthogonalEdgeStyle;rounded=0;orthogonalLoop=1;jettySize=auto;html=1;" parent="1" source="Xof230OjBOCpJgYOQFSc-40" target="Xof230OjBOCpJgYOQFSc-42" edge="1">
          <mxGeometry relative="1" as="geometry" />
        </mxCell>
        <object label="7) Choose a Bug Bounty Program in one of the Bug Bounty Platform" id="Xof230OjBOCpJgYOQFSc-40">
          <mxCell style="whiteSpace=wrap;html=1;align=left;fillColor=#fff2cc;strokeColor=#d6b656;rounded=0;spacingLeft=5;" parent="1" vertex="1">
            <mxGeometry x="1416" y="416" width="137" height="60" as="geometry" />
          </mxCell>
        </object>
        <mxCell id="Xof230OjBOCpJgYOQFSc-42" value="8) Give atleast 15 days to one program before you decide to move to other program as you were not able to find bug." style="whiteSpace=wrap;html=1;align=left;fillColor=#fff2cc;strokeColor=#d6b656;rounded=0;spacingLeft=5;" parent="1" vertex="1">
          <mxGeometry x="1687" y="404" width="223" height="83" as="geometry" />
        </mxCell>
        <mxCell id="Xof230OjBOCpJgYOQFSc-44" value="&lt;h1&gt;Note&lt;/h1&gt;&lt;p&gt;&lt;/p&gt;&lt;ol&gt;&lt;li&gt;Create notes using obsidian tool (or any other similar too, as the notes will get bigger and bigger). My &lt;a href=&quot;https://takshil-patil529.medium.com/beginner-bug-bounty-guide-part-3-8b979d0f6511#9e9b&quot;&gt;Note taking approach&lt;/a&gt;&lt;/li&gt;&lt;li&gt;Create mindmaps, based on how you understand things, you can create as many mind maps as possible (preferred, edrawmind tool)&lt;/li&gt;&lt;ol&gt;&lt;li&gt;In actual bug bounty will be extensively using mindmaps&lt;/li&gt;&lt;li&gt;Create mind map for attack vectors and attack surfaces.&lt;/li&gt;&lt;li&gt;Create mindmap of your methodology - Link your obsidian notes &quot;titles&quot; to make the mindmap easy to read.&lt;/li&gt;&lt;/ol&gt;&lt;li&gt;Majority of your time (3-4 hours daily) you will be doing 2) and 3) and 4), the remaining time (1-2 hours) you will be doing actual bug bounty.&lt;/li&gt;&lt;li&gt;Repeat 2) and 4)&lt;/li&gt;&lt;li&gt;In 5) try to check all information that you have read until now, and check all.&lt;/li&gt;&lt;li&gt;Decide bug bounty program carefully and once decided, keep on working no matter what and how much you have to read documentation and technologies.&lt;/li&gt;&lt;li&gt;Make sure to be up to date with latest security vulnerabilities in the wild. Always watch all security conference videos related to your technology of interest. Update your mindmaps accordingly to incorporate the new knowledge.&lt;/li&gt;&lt;/ol&gt;&lt;p&gt;&lt;/p&gt;" style="text;html=1;strokeColor=none;fillColor=none;spacing=5;spacingTop=-20;whiteSpace=wrap;overflow=hidden;rounded=0;" parent="1" vertex="1">
          <mxGeometry x="1418" y="41" width="520" height="320" as="geometry" />
        </mxCell>
        <object label="(hover) Complete the remaining attacks and vulnerabilities&lt;br&gt;&amp;nbsp;" list-of-attacks="https://owasp.org/www-community/attacks/" list-of-vulns="https://owasp.org/www-community/vulnerabilities/" id="Xof230OjBOCpJgYOQFSc-45">
          <mxCell style="whiteSpace=wrap;html=1;align=left;fillColor=#fff2cc;strokeColor=#d6b656;rounded=0;spacingLeft=5;" parent="1" vertex="1">
            <mxGeometry x="1203" y="591" width="130" height="80" as="geometry" />
          </mxCell>
        </object>
        <mxCell id="hJ6SZaEzVKJAQh04Z_N3-2" style="edgeStyle=orthogonalEdgeStyle;rounded=0;orthogonalLoop=1;jettySize=auto;html=1;exitX=1;exitY=0.5;exitDx=0;exitDy=0;entryX=0;entryY=0.5;entryDx=0;entryDy=0;" parent="1" source="MmSVQE4gHTnKzWuyLMOz-1" target="hJ6SZaEzVKJAQh04Z_N3-1" edge="1">
          <mxGeometry relative="1" as="geometry">
            <mxPoint x="678" y="444" as="targetPoint" />
          </mxGeometry>
        </mxCell>
        <mxCell id="MmSVQE4gHTnKzWuyLMOz-1" value="3) Udemy Bug Bounty Courses" style="whiteSpace=wrap;html=1;rounded=0;fillColor=#fff2cc;strokeColor=#d6b656;align=left;spacingLeft=5;" parent="1" vertex="1">
          <mxGeometry x="451" y="414" width="175" height="60" as="geometry" />
        </mxCell>
        <mxCell id="MmSVQE4gHTnKzWuyLMOz-6" value="" style="edgeStyle=orthogonalEdgeStyle;rounded=0;orthogonalLoop=1;jettySize=auto;html=1;" parent="1" source="MmSVQE4gHTnKzWuyLMOz-4" target="MmSVQE4gHTnKzWuyLMOz-1" edge="1">
          <mxGeometry relative="1" as="geometry" />
        </mxCell>
        <mxCell id="MmSVQE4gHTnKzWuyLMOz-4" value="1) Portswigger Academy&lt;br&gt;(https://portswigger.net/web-security/dashboard)&lt;br&gt;2) Hacksplained - Youtube (https://www.youtube.com/c/Hacksplained/videos)" style="html=1;rounded=0;fillColor=#fff2cc;strokeColor=#d6b656;align=left;spacingLeft=5;whiteSpace=wrap;" parent="1" vertex="1">
          <mxGeometry x="94.5" y="414" width="284.5" height="60" as="geometry" />
        </mxCell>
        <mxCell id="MmSVQE4gHTnKzWuyLMOz-7" value="&lt;h1&gt;How Soon can you start?&lt;/h1&gt;&lt;p&gt;The best position to start a bug bounty program program is &lt;b&gt;&quot;anytime&quot;&lt;/b&gt;. If you are in high school or you are in college or you are working professional or a very experienced person, or a non-programming domain. The only requirement is you should give proper time and efforts. A web developer may require a less time to start, as compared to a person who do not have programming background, but this hurdle is just in the beginning. If you are in high school or dont know about programming, it is not a huge problem you could easily learn any 1 language (python preferred in a week) to get going. Also I would recommend to learn data structures and Object Oriented Programming, these will be used when you read source code.&lt;/p&gt;" style="text;html=1;strokeColor=none;fillColor=none;spacing=5;spacingTop=-20;whiteSpace=wrap;overflow=hidden;rounded=0;" parent="1" vertex="1">
          <mxGeometry x="-271" y="591" width="278" height="384" as="geometry" />
        </mxCell>
        <mxCell id="MmSVQE4gHTnKzWuyLMOz-8" value="Online Courses (Click to see links)" style="swimlane;fontStyle=0;childLayout=stackLayout;horizontal=1;startSize=30;horizontalStack=0;resizeParent=1;resizeParentMax=0;resizeLast=0;collapsible=1;marginBottom=0;" parent="1" vertex="1">
          <mxGeometry x="240" y="51" width="328" height="258" as="geometry" />
        </mxCell>
        <mxCell id="MmSVQE4gHTnKzWuyLMOz-9" value="Note: This list is not up to date, always search and &#xa;research what is the latest course, ask security community.&#xa;How may to buy depends on you. Buy when in offer, &#xa;these are very little investment, given the amount of real l&#xa;ife knowledge your learn. (last checked on Jan 2022). Also&#xa;the udemy courses sometimes are very old like 2014, so &#xa;do the research, choose a course which is most recent." style="text;strokeColor=none;fillColor=none;align=left;verticalAlign=middle;spacingLeft=4;spacingRight=4;overflow=hidden;points=[[0,0.5],[1,0.5]];portConstraint=eastwest;rotatable=0;fontStyle=0" parent="MmSVQE4gHTnKzWuyLMOz-8" vertex="1">
          <mxGeometry y="30" width="328" height="108" as="geometry" />
        </mxCell>
        <UserObject label="1. Nahamsec Bug Bounty Course - Udemy" link="https://www.udemy.com/course/intro-to-bug-bounty-by-nahamsec/" linkTarget="_blank" id="MmSVQE4gHTnKzWuyLMOz-10">
          <mxCell style="text;strokeColor=none;fillColor=none;align=left;verticalAlign=middle;spacingLeft=4;spacingRight=4;overflow=hidden;points=[[0,0.5],[1,0.5]];portConstraint=eastwest;rotatable=0;" parent="MmSVQE4gHTnKzWuyLMOz-8" vertex="1">
            <mxGeometry y="138" width="328" height="30" as="geometry" />
          </mxCell>
        </UserObject>
        <UserObject label="2. Uncle Rat&#39;s Bug Bounty Course - Udemy" link="https://www.udemy.com/course/uncle-rats-bug-bounty-guide/learn/lecture/25572642?start=0#overview" linkTarget="_blank" id="MmSVQE4gHTnKzWuyLMOz-11">
          <mxCell style="text;strokeColor=none;fillColor=none;align=left;verticalAlign=middle;spacingLeft=4;spacingRight=4;overflow=hidden;points=[[0,0.5],[1,0.5]];portConstraint=eastwest;rotatable=0;" parent="MmSVQE4gHTnKzWuyLMOz-8" vertex="1">
            <mxGeometry y="168" width="328" height="30" as="geometry" />
          </mxCell>
        </UserObject>
        <UserObject label="3. Bug Bounty Hunting (Rohit Gautam) part 1 - Udemy" link="https://www.udemy.com/course/website-hacking-penetration-testing-bug-bounty-hunting-live-attacks/" linkTarget="_blank" id="MmSVQE4gHTnKzWuyLMOz-12">
          <mxCell style="text;strokeColor=none;fillColor=none;align=left;verticalAlign=middle;spacingLeft=4;spacingRight=4;overflow=hidden;points=[[0,0.5],[1,0.5]];portConstraint=eastwest;rotatable=0;" parent="MmSVQE4gHTnKzWuyLMOz-8" vertex="1">
            <mxGeometry y="198" width="328" height="30" as="geometry" />
          </mxCell>
        </UserObject>
        <UserObject label="4. Bug Bounty Hunting (Rohit Gautam) part 2 - Udemy" link="https://www.udemy.com/course/penetration-testing-bug-bounty-hunting-level-2-hacktify/" id="MmSVQE4gHTnKzWuyLMOz-13">
          <mxCell style="text;strokeColor=none;fillColor=none;align=left;verticalAlign=middle;spacingLeft=4;spacingRight=4;overflow=hidden;points=[[0,0.5],[1,0.5]];portConstraint=eastwest;rotatable=0;" parent="MmSVQE4gHTnKzWuyLMOz-8" vertex="1">
            <mxGeometry y="228" width="328" height="30" as="geometry" />
          </mxCell>
        </UserObject>
        <mxCell id="MmSVQE4gHTnKzWuyLMOz-14" value="" style="endArrow=classic;html=1;rounded=0;entryX=0.47;entryY=1;entryDx=0;entryDy=0;entryPerimeter=0;exitX=0.5;exitY=0;exitDx=0;exitDy=0;" parent="1" source="MmSVQE4gHTnKzWuyLMOz-1" target="MmSVQE4gHTnKzWuyLMOz-13" edge="1">
          <mxGeometry width="50" height="50" relative="1" as="geometry">
            <mxPoint x="491" y="369" as="sourcePoint" />
            <mxPoint x="541" y="319" as="targetPoint" />
            <Array as="points">
              <mxPoint x="539" y="344" />
              <mxPoint x="394" y="344" />
            </Array>
          </mxGeometry>
        </mxCell>
        <mxCell id="hJ6SZaEzVKJAQh04Z_N3-7" style="edgeStyle=orthogonalEdgeStyle;rounded=0;orthogonalLoop=1;jettySize=auto;html=1;" parent="1" source="hJ6SZaEzVKJAQh04Z_N3-1" target="hJ6SZaEzVKJAQh04Z_N3-3" edge="1">
          <mxGeometry relative="1" as="geometry">
            <Array as="points">
              <mxPoint x="755" y="246" />
              <mxPoint x="755" y="246" />
            </Array>
          </mxGeometry>
        </mxCell>
        <mxCell id="7APMinoS_-_rVs3ugznU-6" style="edgeStyle=orthogonalEdgeStyle;rounded=0;orthogonalLoop=1;jettySize=auto;html=1;entryX=1;entryY=0.5;entryDx=0;entryDy=0;" parent="1" source="hJ6SZaEzVKJAQh04Z_N3-1" target="7APMinoS_-_rVs3ugznU-1" edge="1">
          <mxGeometry relative="1" as="geometry" />
        </mxCell>
        <UserObject label="4) Payload Resources in Github" id="hJ6SZaEzVKJAQh04Z_N3-1">
          <mxCell style="whiteSpace=wrap;html=1;rounded=0;fillColor=#fff2cc;strokeColor=#d6b656;align=left;spacingLeft=5;" parent="1" vertex="1">
            <mxGeometry x="680" y="414" width="150" height="60" as="geometry" />
          </mxCell>
        </UserObject>
        <mxCell id="hJ6SZaEzVKJAQh04Z_N3-3" value="Some Example (Click to see links)" style="swimlane;fontStyle=0;childLayout=stackLayout;horizontal=1;startSize=30;horizontalStack=0;resizeParent=1;resizeParentMax=0;resizeLast=0;collapsible=1;marginBottom=0;" parent="1" vertex="1">
          <mxGeometry x="657" y="51" width="191" height="120" as="geometry" />
        </mxCell>
        <UserObject label="SSRF" link="https://github.com/swisskyrepo/PayloadsAllTheThings/blob/master/Server%20Side%20Request%20Forgery/README.md" linkTarget="_blank" id="hJ6SZaEzVKJAQh04Z_N3-4">
          <mxCell style="text;strokeColor=none;fillColor=none;align=left;verticalAlign=middle;spacingLeft=4;spacingRight=4;overflow=hidden;points=[[0,0.5],[1,0.5]];portConstraint=eastwest;rotatable=0;" parent="hJ6SZaEzVKJAQh04Z_N3-3" vertex="1">
            <mxGeometry y="30" width="191" height="30" as="geometry" />
          </mxCell>
        </UserObject>
        <UserObject label="SSTI" link="https://github.com/swisskyrepo/PayloadsAllTheThings/blob/master/Server%20Side%20Template%20Injection/README.md" linkTarget="_blank" id="hJ6SZaEzVKJAQh04Z_N3-5">
          <mxCell style="text;strokeColor=none;fillColor=none;align=left;verticalAlign=middle;spacingLeft=4;spacingRight=4;overflow=hidden;points=[[0,0.5],[1,0.5]];portConstraint=eastwest;rotatable=0;" parent="hJ6SZaEzVKJAQh04Z_N3-3" vertex="1">
            <mxGeometry y="60" width="191" height="30" as="geometry" />
          </mxCell>
        </UserObject>
        <UserObject label="IDOR/BOLA" link="https://github.com/swisskyrepo/PayloadsAllTheThings/blob/master/Insecure%20Direct%20Object%20References/README.md" linkTarget="_blank" id="hJ6SZaEzVKJAQh04Z_N3-6">
          <mxCell style="text;strokeColor=none;fillColor=none;align=left;verticalAlign=middle;spacingLeft=4;spacingRight=4;overflow=hidden;points=[[0,0.5],[1,0.5]];portConstraint=eastwest;rotatable=0;" parent="hJ6SZaEzVKJAQh04Z_N3-3" vertex="1">
            <mxGeometry y="90" width="191" height="30" as="geometry" />
          </mxCell>
        </UserObject>
        <mxCell id="7APMinoS_-_rVs3ugznU-7" style="edgeStyle=orthogonalEdgeStyle;rounded=0;orthogonalLoop=1;jettySize=auto;html=1;entryX=0;entryY=0.5;entryDx=0;entryDy=0;" parent="1" target="Xof230OjBOCpJgYOQFSc-20" edge="1">
          <mxGeometry relative="1" as="geometry">
            <mxPoint x="1039" y="446" as="sourcePoint" />
          </mxGeometry>
        </mxCell>
        <UserObject label="5) OWASP WSTG (Reference)&lt;br&gt;&lt;span style=&quot;color: rgba(0 , 0 , 0 , 0) ; font-family: monospace ; font-size: 0px&quot;&gt;%3CmxGraphModel%3E%3Croot%3E%3CmxCell%20id%3D%220%22%2F%3E%3CmxCell%20id%3D%221%22%20parent%3D%220%22%2F%3E%3CmxCell%20id%3D%222%22%20style%3D%22edgeStyle%3DorthogonalEdgeStyle%3Brounded%3D0%3BorthogonalLoop%3D1%3BjettySize%3Dauto%3Bhtml%3D1%3BexitX%3D1%3BexitY%3D0.5%3BexitDx%3D0%3BexitDy%3D0%3BentryX%3D0%3BentryY%3D0.5%3BentryDx%3D0%3BentryDy%3D0%3B%22%20edge%3D%221%22%20parent%3D%221%22%3E%3CmxGeometry%20relative%3D%221%22%20as%3D%22geometry%22%3E%3CmxPoint%20x%3D%22680%22%20y%3D%22444%22%20as%3D%22targetPoint%22%2F%3E%3CmxPoint%20x%3D%22626%22%20y%3D%22444%22%20as%3D%22sourcePoint%22%2F%3E%3C%2FmxGeometry%3E%3C%2FmxCell%3E%3C%2Froot%3E%3C%2FmxGraphModel%3E&lt;/span&gt;" link="https://owasp.org/www-project-web-security-testing-guide/latest/" linkTarget="_blank" id="HWlIVI21igIHyX8Ofn8_-1">
          <mxCell style="whiteSpace=wrap;html=1;rounded=0;fillColor=#fff2cc;strokeColor=#d6b656;align=left;spacingLeft=5;" parent="1" vertex="1">
            <mxGeometry x="909" y="416" width="130" height="58" as="geometry" />
          </mxCell>
        </UserObject>
        <mxCell id="HWlIVI21igIHyX8Ofn8_-4" style="edgeStyle=orthogonalEdgeStyle;rounded=0;orthogonalLoop=1;jettySize=auto;html=1;entryX=0;entryY=0.5;entryDx=0;entryDy=0;" parent="1" target="HWlIVI21igIHyX8Ofn8_-1" edge="1">
          <mxGeometry relative="1" as="geometry">
            <mxPoint x="897" y="445" as="targetPoint" />
            <mxPoint x="831" y="445" as="sourcePoint" />
          </mxGeometry>
        </mxCell>
        <mxCell id="2ym2PpujTpkCFjnNbPMn-2" value="Additional Payload List Resources (Click to see links)" style="swimlane;fontStyle=0;childLayout=stackLayout;horizontal=1;startSize=30;horizontalStack=0;resizeParent=1;resizeParentMax=0;resizeLast=0;collapsible=1;marginBottom=0;" parent="1" vertex="1">
          <mxGeometry x="357" y="556" width="312" height="150" as="geometry" />
        </mxCell>
        <UserObject label="Payload of All Things" link="https://github.com/swisskyrepo/PayloadsAllTheThings" linkTarget="_blank" id="7APMinoS_-_rVs3ugznU-2">
          <mxCell style="text;strokeColor=none;fillColor=none;align=left;verticalAlign=middle;spacingLeft=4;spacingRight=4;overflow=hidden;points=[[0,0.5],[1,0.5]];portConstraint=eastwest;rotatable=0;" parent="2ym2PpujTpkCFjnNbPMn-2" vertex="1">
            <mxGeometry y="30" width="312" height="30" as="geometry" />
          </mxCell>
        </UserObject>
        <UserObject label="SecLists" link="https://github.com/danielmiessler/SecLists" linkTarget="_blank" id="7APMinoS_-_rVs3ugznU-1">
          <mxCell style="text;strokeColor=none;fillColor=none;align=left;verticalAlign=middle;spacingLeft=4;spacingRight=4;overflow=hidden;points=[[0,0.5],[1,0.5]];portConstraint=eastwest;rotatable=0;" parent="2ym2PpujTpkCFjnNbPMn-2" vertex="1">
            <mxGeometry y="60" width="312" height="30" as="geometry" />
          </mxCell>
        </UserObject>
        <UserObject label="Payload of All Things" link="https://github.com/swisskyrepo/PayloadsAllTheThings" linkTarget="_blank" id="2ym2PpujTpkCFjnNbPMn-3">
          <mxCell style="text;strokeColor=none;fillColor=none;align=left;verticalAlign=middle;spacingLeft=4;spacingRight=4;overflow=hidden;points=[[0,0.5],[1,0.5]];portConstraint=eastwest;rotatable=0;" parent="2ym2PpujTpkCFjnNbPMn-2" vertex="1">
            <mxGeometry y="90" width="312" height="30" as="geometry" />
          </mxCell>
        </UserObject>
        <UserObject label="PayloadBox" link="https://github.com/orgs/payloadbox/repositories" linkTarget="_blank" id="2ym2PpujTpkCFjnNbPMn-4">
          <mxCell style="text;strokeColor=none;fillColor=none;align=left;verticalAlign=middle;spacingLeft=4;spacingRight=4;overflow=hidden;points=[[0,0.5],[1,0.5]];portConstraint=eastwest;rotatable=0;" parent="2ym2PpujTpkCFjnNbPMn-2" vertex="1">
            <mxGeometry y="120" width="312" height="30" as="geometry" />
          </mxCell>
        </UserObject>
        <mxCell id="7APMinoS_-_rVs3ugznU-5" style="edgeStyle=orthogonalEdgeStyle;rounded=0;orthogonalLoop=1;jettySize=auto;html=1;entryX=0.5;entryY=1;entryDx=0;entryDy=0;" parent="1" source="7APMinoS_-_rVs3ugznU-3" target="HWlIVI21igIHyX8Ofn8_-1" edge="1">
          <mxGeometry relative="1" as="geometry" />
        </mxCell>
        <mxCell id="7APMinoS_-_rVs3ugznU-3" value="Goal here is not to first complete OWASP WSTG and then only move forward, the minimum thing is that you should read the complete document once, even if you dont understand all information. Then use this as a guide to ensure that all test cases are covered." style="whiteSpace=wrap;html=1;rounded=0;align=left;spacingLeft=5;" parent="1" vertex="1">
          <mxGeometry x="869" y="519" width="210" height="138" as="geometry" />
        </mxCell>
        <mxCell id="7APMinoS_-_rVs3ugznU-11" value="&lt;font style=&quot;font-size: 10px&quot;&gt;Now you are ready for real life practical bug hunting&lt;/font&gt;" style="text;html=1;strokeColor=none;fillColor=none;align=center;verticalAlign=middle;whiteSpace=wrap;rounded=0;" parent="1" vertex="1">
          <mxGeometry x="1265" y="409" width="127" height="30" as="geometry" />
        </mxCell>
        <mxCell id="7APMinoS_-_rVs3ugznU-12" value="&lt;font style=&quot;font-size: 10px&quot;&gt;Goal is to find first or one bug.&lt;/font&gt;" style="text;html=1;strokeColor=none;fillColor=none;align=center;verticalAlign=middle;whiteSpace=wrap;rounded=0;" parent="1" vertex="1">
          <mxGeometry x="1269" y="452" width="127" height="30" as="geometry" />
        </mxCell>
        <mxCell id="7APMinoS_-_rVs3ugznU-13" value="&lt;h1&gt;&lt;font style=&quot;font-size: 14px&quot;&gt;About Submssions and Writeups&lt;/font&gt;&lt;/h1&gt;&lt;p&gt;&lt;font style=&quot;font-size: 12px&quot;&gt;The more bug submissions and writeups you read-understand-use in your testing, the better your testing and detction skill will be. This will help you understand how manual bug bounty is done. &lt;b&gt;This is very important if you want to find bugs quickly.&lt;/b&gt;&lt;/font&gt;&lt;/p&gt;" style="text;html=1;strokeColor=none;fillColor=none;spacing=5;spacingTop=-20;whiteSpace=wrap;overflow=hidden;rounded=0;fontSize=10;" parent="1" vertex="1">
          <mxGeometry x="943" y="39" width="173" height="202" as="geometry" />
        </mxCell>
        <mxCell id="7APMinoS_-_rVs3ugznU-14" value="" style="endArrow=none;dashed=1;html=1;dashPattern=1 3;strokeWidth=2;rounded=0;fontSize=12;entryX=0.5;entryY=1;entryDx=0;entryDy=0;exitX=0.5;exitY=0;exitDx=0;exitDy=0;" parent="1" source="Xof230OjBOCpJgYOQFSc-30" target="Xof230OjBOCpJgYOQFSc-40" edge="1">
          <mxGeometry width="50" height="50" relative="1" as="geometry">
            <mxPoint x="1436" y="569" as="sourcePoint" />
            <mxPoint x="1486" y="519" as="targetPoint" />
          </mxGeometry>
        </mxCell>
        <mxCell id="7APMinoS_-_rVs3ugznU-17" style="edgeStyle=orthogonalEdgeStyle;rounded=0;orthogonalLoop=1;jettySize=auto;html=1;entryX=0.5;entryY=1;entryDx=0;entryDy=0;fontSize=12;" parent="1" source="7APMinoS_-_rVs3ugznU-16" target="Xof230OjBOCpJgYOQFSc-45" edge="1">
          <mxGeometry relative="1" as="geometry" />
        </mxCell>
        <mxCell id="7APMinoS_-_rVs3ugznU-16" value="Portswigger Academy does not cover all types of attack, but covers most of them. To read about remaining attacks hover to the above box and visit the OWASP website links to get an exhaustive list of attacks and vulnerabilities." style="whiteSpace=wrap;html=1;rounded=0;align=left;spacingLeft=5;" parent="1" vertex="1">
          <mxGeometry x="1163" y="766" width="210" height="138" as="geometry" />
        </mxCell>
      </root>
    </mxGraphModel>
  </diagram>
  <diagram id="fr__hVA0zZx0z3aRJqKh" name="Approach to Secure Web Application">
    <mxGraphModel dx="2298" dy="1238" grid="0" gridSize="10" guides="1" tooltips="1" connect="1" arrows="1" fold="1" page="1" pageScale="1" pageWidth="850" pageHeight="1100" math="0" shadow="0">
      <root>
        <mxCell id="W502gN32-4tvwfI5qZOc-0" />
        <mxCell id="W502gN32-4tvwfI5qZOc-1" parent="W502gN32-4tvwfI5qZOc-0" />
        <mxCell id="W502gN32-4tvwfI5qZOc-4" value="" style="edgeStyle=orthogonalEdgeStyle;rounded=0;orthogonalLoop=1;jettySize=auto;html=1;" parent="W502gN32-4tvwfI5qZOc-1" source="W502gN32-4tvwfI5qZOc-2" target="W502gN32-4tvwfI5qZOc-3" edge="1">
          <mxGeometry relative="1" as="geometry" />
        </mxCell>
        <mxCell id="W502gN32-4tvwfI5qZOc-2" value="Approach to Secure Web Application (Overview)" style="rounded=0;whiteSpace=wrap;html=1;" parent="W502gN32-4tvwfI5qZOc-1" vertex="1">
          <mxGeometry x="80" y="340" width="120" height="60" as="geometry" />
        </mxCell>
        <mxCell id="W502gN32-4tvwfI5qZOc-14" value="" style="edgeStyle=orthogonalEdgeStyle;rounded=0;orthogonalLoop=1;jettySize=auto;html=1;" parent="W502gN32-4tvwfI5qZOc-1" source="W502gN32-4tvwfI5qZOc-3" target="W502gN32-4tvwfI5qZOc-13" edge="1">
          <mxGeometry relative="1" as="geometry" />
        </mxCell>
        <mxCell id="W502gN32-4tvwfI5qZOc-3" value="DEVELOPMENT: Build website with Security in Mind" style="whiteSpace=wrap;html=1;rounded=0;" parent="W502gN32-4tvwfI5qZOc-1" vertex="1">
          <mxGeometry x="280" y="340" width="120" height="60" as="geometry" />
        </mxCell>
        <mxCell id="W502gN32-4tvwfI5qZOc-7" value="" style="endArrow=none;html=1;rounded=0;entryX=0.5;entryY=1;entryDx=0;entryDy=0;" parent="W502gN32-4tvwfI5qZOc-1" target="W502gN32-4tvwfI5qZOc-3" edge="1">
          <mxGeometry width="50" height="50" relative="1" as="geometry">
            <mxPoint x="340" y="800" as="sourcePoint" />
            <mxPoint x="420" y="600" as="targetPoint" />
          </mxGeometry>
        </mxCell>
        <mxCell id="W502gN32-4tvwfI5qZOc-8" value="Secure Coding Practice" style="rounded=0;whiteSpace=wrap;html=1;" parent="W502gN32-4tvwfI5qZOc-1" vertex="1">
          <mxGeometry x="220" y="450" width="120" height="60" as="geometry" />
        </mxCell>
        <mxCell id="W502gN32-4tvwfI5qZOc-9" value="Code Security Audit/Review in SDLC" style="rounded=0;whiteSpace=wrap;html=1;" parent="W502gN32-4tvwfI5qZOc-1" vertex="1">
          <mxGeometry x="220" y="550" width="120" height="60" as="geometry" />
        </mxCell>
        <mxCell id="W502gN32-4tvwfI5qZOc-12" value="&lt;h1&gt;Test End to End&lt;/h1&gt;&lt;span style=&quot;text-align: center&quot;&gt;Frequent audit should should be done not only to the application code, but also &lt;b&gt;libraries that use it should also be analyzed for bugs.&lt;/b&gt; Even though your code is secure but the library is exploitable,&lt;/span&gt;&lt;p&gt;&lt;span&gt;.&lt;/span&gt;&lt;/p&gt;" style="text;html=1;strokeColor=none;fillColor=none;spacing=5;spacingTop=-20;whiteSpace=wrap;overflow=hidden;rounded=0;" parent="W502gN32-4tvwfI5qZOc-1" vertex="1">
          <mxGeometry x="150" y="657" width="190" height="139" as="geometry" />
        </mxCell>
        <mxCell id="W502gN32-4tvwfI5qZOc-19" value="" style="edgeStyle=orthogonalEdgeStyle;rounded=0;orthogonalLoop=1;jettySize=auto;html=1;" parent="W502gN32-4tvwfI5qZOc-1" source="W502gN32-4tvwfI5qZOc-13" target="W502gN32-4tvwfI5qZOc-18" edge="1">
          <mxGeometry relative="1" as="geometry" />
        </mxCell>
        <mxCell id="W502gN32-4tvwfI5qZOc-13" value="CONTINEOUS TESTING: Hire a good Web App pentester" style="whiteSpace=wrap;html=1;rounded=0;" parent="W502gN32-4tvwfI5qZOc-1" vertex="1">
          <mxGeometry x="480" y="340" width="120" height="60" as="geometry" />
        </mxCell>
        <mxCell id="W502gN32-4tvwfI5qZOc-15" value="" style="endArrow=none;html=1;rounded=0;entryX=0.5;entryY=1;entryDx=0;entryDy=0;" parent="W502gN32-4tvwfI5qZOc-1" target="W502gN32-4tvwfI5qZOc-13" edge="1">
          <mxGeometry width="50" height="50" relative="1" as="geometry">
            <mxPoint x="540" y="800" as="sourcePoint" />
            <mxPoint x="539.5" y="420" as="targetPoint" />
          </mxGeometry>
        </mxCell>
        <mxCell id="W502gN32-4tvwfI5qZOc-16" value="The goal here is to test for low hanging fruits as it has to be done more frequently" style="rounded=0;whiteSpace=wrap;html=1;" parent="W502gN32-4tvwfI5qZOc-1" vertex="1">
          <mxGeometry x="420" y="450" width="120" height="60" as="geometry" />
        </mxCell>
        <mxCell id="W502gN32-4tvwfI5qZOc-17" value="Dont expect an pentester to find all possible vulnerabilities, and all attack vectors, as it requires a lot of time to do so. It is not a problem of complexity, given a good pentester." style="rounded=0;whiteSpace=wrap;html=1;" parent="W502gN32-4tvwfI5qZOc-1" vertex="1">
          <mxGeometry x="420" y="550" width="120" height="160" as="geometry" />
        </mxCell>
        <mxCell id="W502gN32-4tvwfI5qZOc-18" value="START A BUG BOUNTY PROGRAM" style="whiteSpace=wrap;html=1;rounded=0;" parent="W502gN32-4tvwfI5qZOc-1" vertex="1">
          <mxGeometry x="680" y="340" width="120" height="60" as="geometry" />
        </mxCell>
        <mxCell id="W502gN32-4tvwfI5qZOc-20" value="" style="endArrow=none;html=1;rounded=0;entryX=0.5;entryY=1;entryDx=0;entryDy=0;" parent="W502gN32-4tvwfI5qZOc-1" target="W502gN32-4tvwfI5qZOc-18" edge="1">
          <mxGeometry width="50" height="50" relative="1" as="geometry">
            <mxPoint x="740" y="810" as="sourcePoint" />
            <mxPoint x="750" y="410" as="targetPoint" />
          </mxGeometry>
        </mxCell>
        <mxCell id="W502gN32-4tvwfI5qZOc-21" value="One should not start a bug bounty program directly, you should only start if the you think you have a good security posture." style="rounded=0;whiteSpace=wrap;html=1;" parent="W502gN32-4tvwfI5qZOc-1" vertex="1">
          <mxGeometry x="620" y="450" width="120" height="110" as="geometry" />
        </mxCell>
        <mxCell id="W502gN32-4tvwfI5qZOc-22" value="Instead of hiring more experienced web app pentester, it is always better to give the problem to a 100&#39;s of them. This is what is the reason people should go for bug bounty programs." style="rounded=0;whiteSpace=wrap;html=1;" parent="W502gN32-4tvwfI5qZOc-1" vertex="1">
          <mxGeometry x="620" y="600" width="120" height="150" as="geometry" />
        </mxCell>
      </root>
    </mxGraphModel>
  </diagram>
</mxfile>
